<svg xmlns="http://www.w3.org/2000/svg" xmlns:xlink="http://www.w3.org/1999/xlink" width="500" zoomAndPan="magnify" viewBox="0 0 375 374.999991" height="500" preserveAspectRatio="xMidYMid meet" version="1.0"><defs><clipPath id="a1caea6932"><path d="M 84 85 L 270 85 L 270 363.320312 L 84 363.320312 Z M 84 85 " clip-rule="nonzero"/></clipPath></defs><path fill="#ffffff" d="M 358.703125 178.515625 C 355.21875 138.558594 337.867188 99.691406 309.453125 71.210938 C 308.90625 70.664062 308.292969 70.046875 307.746094 69.503906 C 265.125 28.175781 199.894531 11.648438 142.652344 27.699219 C 85.414062 43.75 38.351562 91.769531 23.460938 149.28125 C 14.648438 183.160156 17.246094 219.636719 29.472656 252.285156 C 42.039062 286.027344 64.855469 314.648438 94.910156 334.457031 C 109.046875 343.816406 124.757812 350.851562 141.152344 355.222656 C 141.832031 339.511719 141.902344 323.460938 136.710938 308.636719 C 130.359375 290.808594 117.3125 276.671875 106.246094 261.710938 C 94.839844 246.34375 86.027344 228.996094 80.90625 210.484375 C 75.714844 191.769531 74.484375 171.824219 78.652344 152.765625 C 84.253906 127.289062 99.074219 103.585938 121.410156 89.652344 C 140.742188 77.5625 164.101562 72.917969 186.640625 73.328125 C 214.101562 73.875 242.171875 82.273438 262.390625 100.855469 C 282.609375 119.433594 293.539062 149.144531 285.683594 175.511719 C 284.179688 180.496094 282.0625 185.757812 283.429688 190.8125 C 284.316406 194.023438 286.503906 196.6875 288.6875 199.28125 C 294.972656 206.726562 301.257812 214.171875 307.542969 221.617188 C 309.523438 223.941406 311.640625 226.671875 311.160156 229.746094 C 310.410156 234.9375 303.375 236.234375 299.960938 240.265625 C 294.152344 247.164062 301.257812 257.886719 298.730469 266.5625 C 297.980469 269.089844 296.476562 271.34375 295.65625 273.800781 C 292.71875 282.546875 298.730469 293.132812 293.949219 300.988281 C 290.261719 306.929688 282.132812 308.160156 275.164062 307.410156 C 268.199219 306.589844 261.164062 304.402344 254.332031 305.972656 C 244.769531 308.160156 238.074219 317.3125 235.890625 326.875 C 233.703125 336.4375 235.136719 346.410156 236.640625 356.109375 C 293.675781 339.441406 340.328125 290.945312 354.605469 233.230469 C 359.042969 215.402344 360.339844 196.890625 358.703125 178.515625 Z M 358.703125 178.515625 " fill-opacity="1" fill-rule="nonzero"/><g clip-path="url(#a1caea6932)"><path fill="#ffffff" d="M 241.011719 183.367188 C 242.039062 186.578125 244.972656 188.898438 248.457031 188.898438 C 252.761719 188.898438 256.3125 185.414062 256.3125 181.042969 C 256.3125 179.199219 255.628906 177.558594 254.605469 176.195312 L 261.980469 158.160156 C 266.421875 156.863281 269.699219 152.835938 269.699219 147.984375 C 269.699219 142.109375 264.917969 137.398438 259.113281 137.398438 C 258.703125 137.398438 258.363281 137.398438 258.019531 137.464844 L 236.09375 113.628906 C 236.4375 112.535156 236.640625 111.441406 236.640625 110.210938 C 236.640625 104.335938 231.859375 99.625 226.054688 99.625 C 222.84375 99.625 219.90625 101.058594 217.992188 103.382812 L 183.292969 93.613281 C 182.203125 88.96875 177.96875 85.484375 172.980469 85.484375 C 167.242188 85.484375 162.597656 89.992188 162.394531 95.730469 L 125.371094 111.03125 C 123.9375 109.460938 121.886719 108.4375 119.566406 108.4375 C 115.261719 108.4375 111.710938 111.917969 111.710938 116.289062 C 111.710938 118.410156 112.53125 120.320312 113.898438 121.753906 L 99.757812 145.117188 C 98.253906 144.296875 96.480469 143.816406 94.636719 143.816406 C 88.761719 143.816406 84.046875 148.597656 84.046875 154.40625 C 84.046875 160.28125 88.828125 164.992188 94.636719 164.992188 C 95.453125 164.992188 96.207031 164.925781 96.957031 164.71875 L 109.457031 193.132812 C 107.066406 195.046875 105.496094 198.050781 105.496094 201.398438 C 105.496094 207.273438 110.277344 211.984375 116.082031 211.984375 C 116.835938 211.984375 117.585938 211.917969 118.269531 211.78125 L 131.109375 236.984375 C 129.199219 238.898438 128.035156 241.5625 128.035156 244.5 C 128.035156 250.375 132.816406 255.085938 138.625 255.085938 C 139.511719 255.085938 140.332031 254.949219 141.082031 254.8125 L 157.476562 280.835938 C 154.675781 282.75 152.898438 285.960938 152.898438 289.582031 C 152.898438 295.453125 157.679688 300.167969 163.488281 300.167969 C 163.691406 300.167969 163.894531 300.167969 164.101562 300.167969 L 167.996094 328.855469 L 167.3125 361.640625 C 167.3125 362.53125 167.996094 363.28125 168.949219 363.351562 C 169.839844 363.351562 170.589844 362.667969 170.660156 361.710938 L 171.339844 328.652344 L 167.378906 299.417969 C 171.339844 297.84375 174.140625 294.019531 174.140625 289.582031 C 174.140625 283.707031 169.359375 278.992188 163.554688 278.992188 C 162.53125 278.992188 161.503906 279.128906 160.550781 279.402344 L 144.222656 253.515625 C 147.160156 251.738281 149.140625 248.53125 149.277344 244.839844 L 164.238281 242.585938 C 165.671875 244.5 167.925781 245.730469 170.453125 245.730469 C 174.757812 245.730469 178.308594 242.246094 178.308594 237.875 C 178.308594 234.390625 176.054688 231.519531 172.914062 230.429688 L 170.113281 207.75 C 175.578125 207.273438 179.8125 202.765625 179.8125 197.164062 C 179.8125 196.414062 179.742188 195.730469 179.605469 195.046875 L 195.65625 183.707031 C 197.160156 184.460938 198.800781 184.9375 200.574219 184.9375 C 203.785156 184.9375 206.65625 183.503906 208.566406 181.25 Z M 105.222656 152.902344 C 105.015625 151.332031 104.539062 149.898438 103.71875 148.597656 L 164.921875 102.835938 C 165.671875 103.722656 166.492188 104.40625 167.515625 105.019531 L 150.917969 140.609375 C 146.75 140.949219 143.335938 143.679688 141.902344 147.4375 Z M 170.523438 106.320312 C 171.339844 106.523438 172.160156 106.589844 172.980469 106.589844 C 175.441406 106.589844 177.695312 105.773438 179.539062 104.335938 L 200.507812 130.910156 C 199.140625 132.683594 198.320312 134.9375 198.320312 137.398438 C 198.320312 138.351562 198.457031 139.308594 198.730469 140.265625 L 161.984375 148.121094 C 160.890625 144.570312 158.023438 141.90625 154.402344 140.949219 Z M 162.394531 151.332031 L 200.097656 143.269531 C 201.394531 145.253906 203.375 146.6875 205.628906 147.4375 L 201.941406 163.695312 C 201.53125 163.625 201.121094 163.625 200.644531 163.625 C 196.273438 163.625 192.515625 166.222656 190.945312 169.980469 L 161.640625 155.019531 C 162.121094 153.925781 162.394531 152.628906 162.394531 151.332031 Z M 211.164062 172.777344 L 250.984375 154.816406 C 252.761719 156.933594 255.355469 158.367188 258.292969 158.570312 L 251.941406 174.078125 C 250.917969 173.53125 249.753906 173.257812 248.457031 173.257812 C 244.496094 173.257812 241.21875 176.261719 240.738281 180.085938 L 210.546875 178.039062 C 210.957031 176.878906 211.230469 175.578125 211.230469 174.28125 C 211.300781 173.734375 211.230469 173.257812 211.164062 172.777344 Z M 254.46875 138.488281 C 250.917969 140.199219 248.527344 143.816406 248.527344 147.984375 C 248.527344 149.417969 248.800781 150.714844 249.277344 151.945312 L 210.207031 169.570312 C 209.113281 167.382812 207.339844 165.605469 205.152344 164.582031 L 208.910156 147.917969 C 214.785156 147.917969 219.496094 143.136719 219.496094 137.328125 C 219.496094 134.800781 218.609375 132.480469 217.175781 130.703125 L 223.457031 120.457031 C 224.277344 120.664062 225.164062 120.800781 226.054688 120.800781 C 229.46875 120.800781 232.472656 119.160156 234.457031 116.699219 Z M 220.382812 119.160156 L 214.648438 128.449219 C 213.007812 127.355469 211.027344 126.742188 208.910156 126.742188 C 206.65625 126.742188 204.605469 127.425781 202.898438 128.585938 L 181.792969 101.808594 C 182.75 100.375 183.363281 98.738281 183.5 96.960938 L 216.21875 106.183594 C 215.738281 107.410156 215.464844 108.710938 215.464844 110.144531 C 215.464844 113.96875 217.449219 117.246094 220.382812 119.160156 Z M 162.804688 99.011719 C 162.941406 99.351562 163.007812 99.691406 163.144531 100.035156 L 104.0625 144.226562 L 116.699219 123.394531 C 117.585938 123.734375 118.542969 123.941406 119.566406 123.941406 C 123.871094 123.941406 127.421875 120.457031 127.421875 116.085938 C 127.421875 115.265625 127.285156 114.445312 127.011719 113.695312 Z M 100.097656 163.351562 C 102.625 161.851562 104.539062 159.324219 105.085938 156.316406 L 141.21875 150.921875 C 141.21875 150.988281 141.21875 151.125 141.21875 151.195312 C 141.21875 153.652344 142.105469 155.976562 143.542969 157.753906 L 120.113281 191.359375 C 118.882812 190.878906 117.585938 190.605469 116.21875 190.605469 C 114.921875 190.605469 113.625 190.878906 112.460938 191.289062 Z M 148.871094 241.425781 C 147.570312 236.984375 143.542969 233.707031 138.691406 233.707031 C 136.984375 233.707031 135.34375 234.117188 133.910156 234.867188 L 121.480469 210.414062 C 124.6875 208.570312 126.808594 205.15625 126.808594 201.195312 C 126.808594 197.914062 125.304688 194.976562 122.980469 192.996094 L 146 159.9375 C 147.023438 160.621094 148.1875 161.097656 149.414062 161.441406 L 163.691406 188.078125 C 160.753906 189.992188 158.773438 193.269531 158.773438 197.027344 C 158.773438 202.015625 162.257812 206.25 166.902344 207.339844 L 169.632812 229.882812 C 165.742188 230.359375 162.667969 233.640625 162.667969 237.667969 C 162.667969 238.214844 162.734375 238.761719 162.871094 239.308594 Z M 169.292969 186.441406 C 168.335938 186.441406 167.449219 186.578125 166.628906 186.78125 L 153.171875 161.644531 C 155.90625 161.304688 158.296875 159.871094 160.003906 157.890625 L 190.125 173.257812 C 190.125 173.597656 190.058594 173.871094 190.058594 174.214844 C 190.058594 177.015625 191.148438 179.609375 192.996094 181.523438 L 178.511719 191.769531 C 176.667969 188.625 173.1875 186.441406 169.292969 186.441406 Z M 169.292969 186.441406 " fill-opacity="1" fill-rule="nonzero"/></g></svg>