<svg xmlns="http://www.w3.org/2000/svg" xmlns:xlink="http://www.w3.org/1999/xlink" width="500" zoomAndPan="magnify" viewBox="0 0 375 374.999991" height="500" preserveAspectRatio="xMidYMid meet" version="1.0"><defs><clipPath id="13df7fcdf9"><path d="M 84 85 L 270 85 L 270 363.320312 L 84 363.320312 Z M 84 85 " clip-rule="nonzero"/></clipPath></defs><path fill="#3b3f3f" d="M 358.761719 178.464844 C 355.277344 138.519531 337.921875 99.667969 309.503906 71.191406 C 308.957031 70.644531 308.34375 70.03125 307.796875 69.484375 C 265.167969 28.171875 199.925781 11.648438 142.675781 27.695312 C 85.425781 43.742188 38.355469 91.746094 23.460938 149.242188 C 14.648438 183.109375 17.246094 219.574219 29.476562 252.214844 C 42.042969 285.945312 64.863281 314.558594 94.921875 334.359375 C 109.0625 343.714844 124.777344 350.75 141.171875 355.117188 C 141.855469 339.414062 141.921875 323.367188 136.730469 308.546875 C 130.378906 290.726562 117.328125 276.589844 106.261719 261.636719 C 94.855469 246.273438 86.039062 228.929688 80.917969 210.425781 C 75.726562 191.714844 74.496094 171.773438 78.664062 152.722656 C 84.265625 127.253906 99.089844 103.558594 121.429688 89.628906 C 140.761719 77.542969 164.125 72.898438 186.671875 73.308594 C 214.132812 73.855469 242.210938 82.253906 262.433594 100.828125 C 282.65625 119.402344 293.585938 149.105469 285.730469 175.460938 C 284.226562 180.445312 282.109375 185.703125 283.476562 190.757812 C 284.363281 193.96875 286.550781 196.628906 288.734375 199.226562 C 295.019531 206.667969 301.304688 214.109375 307.589844 221.554688 C 309.574219 223.875 311.691406 226.605469 311.210938 229.679688 C 310.460938 234.871094 303.425781 236.167969 300.007812 240.195312 C 294.203125 247.09375 301.304688 257.8125 298.777344 266.484375 C 298.027344 269.011719 296.523438 271.265625 295.703125 273.722656 C 292.765625 282.464844 298.777344 293.046875 293.996094 300.902344 C 290.308594 306.839844 282.175781 308.070312 275.210938 307.320312 C 268.242188 306.5 261.203125 304.316406 254.371094 305.886719 C 244.808594 308.070312 238.113281 317.222656 235.925781 326.78125 C 233.742188 336.339844 235.175781 346.308594 236.679688 356.007812 C 293.722656 339.34375 340.382812 290.863281 354.660156 233.164062 C 359.101562 215.339844 360.398438 196.835938 358.761719 178.464844 Z M 358.761719 178.464844 " fill-opacity="1" fill-rule="nonzero"/><g clip-path="url(#13df7fcdf9)"><path fill="#3b3f3f" d="M 241.050781 183.316406 C 242.074219 186.523438 245.011719 188.847656 248.496094 188.847656 C 252.800781 188.847656 256.355469 185.363281 256.355469 180.992188 C 256.355469 179.148438 255.671875 177.511719 254.644531 176.144531 L 262.023438 158.117188 C 266.464844 156.820312 269.742188 152.792969 269.742188 147.945312 C 269.742188 142.070312 264.960938 137.359375 259.15625 137.359375 C 258.746094 137.359375 258.402344 137.359375 258.0625 137.429688 L 236.132812 113.597656 C 236.472656 112.503906 236.679688 111.410156 236.679688 110.183594 C 236.679688 104.308594 231.894531 99.597656 226.089844 99.597656 C 222.878906 99.597656 219.941406 101.03125 218.027344 103.355469 L 183.324219 93.589844 C 182.230469 88.945312 177.996094 85.464844 173.007812 85.464844 C 167.269531 85.464844 162.625 89.96875 162.417969 95.707031 L 125.390625 111 C 123.957031 109.429688 121.90625 108.40625 119.585938 108.40625 C 115.28125 108.40625 111.726562 111.890625 111.726562 116.257812 C 111.726562 118.375 112.546875 120.289062 113.914062 121.722656 L 99.773438 145.074219 C 98.269531 144.257812 96.492188 143.777344 94.648438 143.777344 C 88.773438 143.777344 84.058594 148.558594 84.058594 154.363281 C 84.058594 160.234375 88.839844 164.945312 94.648438 164.945312 C 95.46875 164.945312 96.21875 164.878906 96.972656 164.671875 L 109.472656 193.078125 C 107.082031 194.992188 105.511719 197.996094 105.511719 201.34375 C 105.511719 207.214844 110.292969 211.925781 116.101562 211.925781 C 116.851562 211.925781 117.601562 211.859375 118.285156 211.722656 L 131.128906 236.917969 C 129.214844 238.832031 128.054688 241.492188 128.054688 244.429688 C 128.054688 250.300781 132.835938 255.011719 138.644531 255.011719 C 139.53125 255.011719 140.351562 254.878906 141.105469 254.742188 L 157.5 280.757812 C 154.699219 282.667969 152.921875 285.878906 152.921875 289.496094 C 152.921875 295.371094 157.703125 300.082031 163.511719 300.082031 C 163.714844 300.082031 163.921875 300.082031 164.125 300.082031 L 168.019531 328.761719 L 167.335938 361.539062 C 167.335938 362.425781 168.019531 363.175781 168.976562 363.246094 C 169.863281 363.246094 170.617188 362.5625 170.683594 361.605469 L 171.367188 328.554688 L 167.40625 299.332031 C 171.367188 297.757812 174.167969 293.9375 174.167969 289.496094 C 174.167969 283.625 169.386719 278.914062 163.578125 278.914062 C 162.554688 278.914062 161.53125 279.050781 160.574219 279.324219 L 144.246094 253.441406 C 147.183594 251.667969 149.164062 248.457031 149.300781 244.769531 L 164.261719 242.519531 C 165.699219 244.429688 167.953125 245.660156 170.480469 245.660156 C 174.785156 245.660156 178.335938 242.175781 178.335938 237.804688 C 178.335938 234.324219 176.082031 231.457031 172.9375 230.363281 L 170.136719 207.691406 C 175.605469 207.214844 179.839844 202.707031 179.839844 197.109375 C 179.839844 196.355469 179.769531 195.675781 179.632812 194.992188 L 195.6875 183.65625 C 197.191406 184.40625 198.832031 184.886719 200.609375 184.886719 C 203.820312 184.886719 206.6875 183.453125 208.601562 181.199219 Z M 105.238281 152.859375 C 105.03125 151.289062 104.554688 149.855469 103.734375 148.558594 L 164.945312 102.808594 C 165.699219 103.695312 166.515625 104.378906 167.542969 104.992188 L 150.941406 140.570312 C 146.773438 140.910156 143.359375 143.640625 141.921875 147.398438 Z M 170.546875 106.289062 C 171.367188 106.496094 172.1875 106.5625 173.007812 106.5625 C 175.46875 106.5625 177.722656 105.742188 179.566406 104.308594 L 200.539062 130.871094 C 199.171875 132.648438 198.351562 134.902344 198.351562 137.359375 C 198.351562 138.316406 198.488281 139.269531 198.761719 140.226562 L 162.007812 148.082031 C 160.914062 144.53125 158.046875 141.867188 154.425781 140.910156 Z M 162.417969 151.289062 L 200.128906 143.230469 C 201.425781 145.210938 203.410156 146.644531 205.664062 147.398438 L 201.972656 163.648438 C 201.5625 163.582031 201.152344 163.582031 200.675781 163.582031 C 196.304688 163.582031 192.546875 166.175781 190.976562 169.929688 L 161.667969 154.976562 C 162.144531 153.882812 162.417969 152.585938 162.417969 151.289062 Z M 211.195312 172.730469 L 251.023438 154.773438 C 252.800781 156.890625 255.398438 158.324219 258.335938 158.527344 L 251.980469 174.027344 C 250.957031 173.480469 249.796875 173.207031 248.496094 173.207031 C 244.535156 173.207031 241.257812 176.214844 240.777344 180.039062 L 210.582031 177.988281 C 210.992188 176.828125 211.265625 175.53125 211.265625 174.234375 C 211.332031 173.6875 211.265625 173.207031 211.195312 172.730469 Z M 254.507812 138.453125 C 250.957031 140.160156 248.566406 143.777344 248.566406 147.945312 C 248.566406 149.378906 248.839844 150.675781 249.316406 151.902344 L 210.238281 169.519531 C 209.148438 167.335938 207.371094 165.5625 205.183594 164.535156 L 208.941406 147.875 C 214.816406 147.875 219.53125 143.09375 219.53125 137.292969 C 219.53125 134.765625 218.644531 132.441406 217.207031 130.667969 L 223.492188 120.425781 C 224.3125 120.628906 225.203125 120.765625 226.089844 120.765625 C 229.503906 120.765625 232.511719 119.128906 234.492188 116.667969 Z M 220.417969 119.128906 L 214.679688 128.414062 C 213.042969 127.320312 211.058594 126.707031 208.941406 126.707031 C 206.6875 126.707031 204.636719 127.390625 202.929688 128.550781 L 181.820312 101.785156 C 182.777344 100.347656 183.390625 98.710938 183.527344 96.933594 L 216.253906 106.152344 C 215.773438 107.382812 215.5 108.679688 215.5 110.113281 C 215.5 113.9375 217.480469 117.214844 220.417969 119.128906 Z M 162.828125 98.984375 C 162.964844 99.324219 163.035156 99.667969 163.171875 100.007812 L 104.078125 144.1875 L 116.714844 123.359375 C 117.601562 123.703125 118.558594 123.90625 119.585938 123.90625 C 123.886719 123.90625 127.441406 120.425781 127.441406 116.054688 C 127.441406 115.234375 127.304688 114.414062 127.03125 113.664062 Z M 100.113281 163.308594 C 102.640625 161.804688 104.554688 159.277344 105.101562 156.273438 L 141.242188 150.878906 C 141.242188 150.949219 141.242188 151.085938 141.242188 151.152344 C 141.242188 153.609375 142.128906 155.933594 143.5625 157.707031 L 120.128906 191.304688 C 118.902344 190.828125 117.601562 190.554688 116.238281 190.554688 C 114.9375 190.554688 113.640625 190.828125 112.480469 191.234375 Z M 148.890625 241.355469 C 147.59375 236.917969 143.5625 233.640625 138.710938 233.640625 C 137.003906 233.640625 135.367188 234.050781 133.929688 234.800781 L 121.496094 210.355469 C 124.707031 208.511719 126.824219 205.097656 126.824219 201.136719 C 126.824219 197.859375 125.324219 194.921875 123 192.941406 L 146.023438 159.894531 C 147.046875 160.578125 148.207031 161.054688 149.4375 161.394531 L 163.714844 188.027344 C 160.777344 189.9375 158.796875 193.214844 158.796875 196.972656 C 158.796875 201.957031 162.28125 206.191406 166.925781 207.28125 L 169.660156 229.816406 C 165.765625 230.292969 162.691406 233.574219 162.691406 237.601562 C 162.691406 238.148438 162.761719 238.695312 162.898438 239.238281 Z M 169.320312 186.386719 C 168.363281 186.386719 167.472656 186.523438 166.652344 186.730469 L 153.195312 161.601562 C 155.929688 161.257812 158.320312 159.824219 160.027344 157.84375 L 190.15625 173.207031 C 190.15625 173.550781 190.085938 173.824219 190.085938 174.164062 C 190.085938 176.964844 191.179688 179.558594 193.023438 181.472656 L 178.542969 191.714844 C 176.695312 188.574219 173.210938 186.386719 169.320312 186.386719 Z M 169.320312 186.386719 " fill-opacity="1" fill-rule="nonzero"/></g></svg>